<svg xmlns="http://www.w3.org/2000/svg" width="162" height="56" fill="none"><path fill="#123C69" d="M3.24 52V8.26h11.394c1.872 0 3.636.144 5.292.432 1.692.288 3.186.846 4.482 1.674 1.296.792 2.304 1.944 3.024 3.456.756 1.476 1.134 3.438 1.134 5.886 0 1.764-.27 3.258-.81 4.482-.504 1.188-1.242 2.142-2.214 2.862-.936.72-2.07 1.206-3.402 1.458 1.692.216 3.114.774 4.266 1.674 1.152.864 2.016 2.034 2.592 3.51.612 1.476.918 3.258.918 5.346 0 2.268-.306 4.23-.918 5.886-.576 1.62-1.422 2.952-2.538 3.996-1.116 1.044-2.502 1.818-4.158 2.322-1.62.504-3.492.756-5.616.756H3.24Zm9.666-6.75h2.052c2.124 0 3.582-.54 4.374-1.62.828-1.08 1.242-2.664 1.242-4.752 0-1.656-.18-2.97-.54-3.942-.36-.972-.954-1.674-1.782-2.106-.828-.468-1.944-.702-3.348-.702h-1.998V45.25Zm0-19.494h1.89c1.476 0 2.592-.216 3.348-.648a3.386 3.386 0 0 0 1.512-1.998c.288-.864.432-1.908.432-3.132 0-1.152-.216-2.106-.648-2.862-.396-.792-1.008-1.386-1.836-1.782-.792-.396-1.8-.594-3.024-.594h-1.674v11.016Zm34.608 26.892c-3.312 0-5.94-.594-7.884-1.782-1.908-1.224-3.258-2.916-4.05-5.076-.792-2.196-1.188-4.77-1.188-7.722V22.3c0-3.024.396-5.616 1.188-7.776.792-2.196 2.142-3.888 4.05-5.076 1.944-1.188 4.572-1.782 7.884-1.782 3.24 0 5.76.54 7.56 1.62 1.836 1.044 3.132 2.52 3.888 4.428.756 1.908 1.134 4.104 1.134 6.588v3.78h-9.45v-4.374c0-.864-.054-1.692-.162-2.484-.072-.792-.324-1.44-.756-1.944-.432-.54-1.17-.81-2.214-.81-1.008 0-1.764.27-2.268.81-.468.54-.774 1.224-.918 2.052a18.807 18.807 0 0 0-.162 2.538v20.574c0 .972.072 1.872.216 2.7.18.792.504 1.44.972 1.944.504.468 1.224.702 2.16.702 1.008 0 1.728-.252 2.16-.756.432-.54.702-1.224.81-2.052.108-.828.162-1.674.162-2.538v-4.59h9.45v3.78c0 2.484-.378 4.716-1.134 6.696-.72 1.944-1.998 3.492-3.834 4.644-1.8 1.116-4.338 1.674-7.614 1.674Zm15.2-.648 8.316-19.44c-1.656-1.008-3.024-2.484-4.104-4.428-1.044-1.944-1.566-4.212-1.566-6.804 0-3.384.594-6.012 1.782-7.884 1.188-1.908 2.88-3.24 5.076-3.996 2.232-.792 4.896-1.188 7.992-1.188h11.232V52H81.83V34.72h-2.322L73.136 52H62.714Zm17.712-24.084h1.404V14.902h-1.512c-1.98 0-3.474.558-4.482 1.674-.972 1.08-1.458 2.682-1.458 4.806 0 1.872.432 3.438 1.296 4.698.864 1.224 2.448 1.836 4.752 1.836ZM100.512 28V8.56h4.296v7.704h.432l2.856-7.704h4.272l-3.552 9.12L112.488 28h-4.416l-2.832-8.472h-.432V28h-4.296Zm12.726 0 3.672-19.44h4.896L125.43 28h-3.96l-.648-4.104h-2.856L117.294 28h-4.056Zm5.112-6.672h2.064l-1.032-7.584-1.032 7.584ZM126.193 28l3.696-8.64c-.736-.448-1.344-1.104-1.824-1.968-.464-.864-.696-1.872-.696-3.024 0-1.504.264-2.672.792-3.504.528-.848 1.28-1.44 2.256-1.776.992-.352 2.176-.528 3.552-.528h4.992V28h-4.272v-7.68h-1.032L130.825 28h-4.632Zm7.872-10.704h.624v-5.784h-.672c-.88 0-1.544.248-1.992.744-.432.48-.648 1.192-.648 2.136 0 .832.192 1.528.576 2.088.384.544 1.088.816 2.112.816ZM107.66 47.56a12.25 12.25 0 0 1-1.86.64 7.885 7.885 0 0 1-1.84.22c-1.24 0-2.22-.28-2.94-.84-.72-.573-1.08-1.453-1.08-2.64V41.5h1.4v3.36c0 .8.26 1.4.78 1.8.52.4 1.22.6 2.1.6a7.59 7.59 0 0 0 1.68-.2c.587-.147 1.18-.353 1.78-.62l-.02 1.12Zm-.12 4.44V41.5h1.42V52h-1.42Zm5.453 0V41.5h1.42v8.34l7.02-8.34h1.26V52h-1.42v-8.36l-7 8.36h-1.28Zm13.769 0V41.5h1.42v4.64h6.62V41.5h1.42V52h-1.42v-4.64h-6.62V52h-1.42Zm20.016 0v-2.32l-.06-.38v-3.88c0-.893-.253-1.58-.76-2.06-.493-.48-1.233-.72-2.22-.72-.68 0-1.326.113-1.94.34a4.95 4.95 0 0 0-1.56.9l-.64-1.06c.534-.453 1.174-.8 1.92-1.04a7.3 7.3 0 0 1 2.36-.38c1.36 0 2.407.34 3.14 1.02.747.667 1.12 1.687 1.12 3.06V52h-1.36Zm-3.62.1c-.786 0-1.473-.127-2.06-.38-.573-.267-1.013-.627-1.32-1.08-.306-.467-.46-1-.46-1.6 0-.547.127-1.04.38-1.48.267-.453.694-.813 1.28-1.08.6-.28 1.4-.42 2.4-.42h3.62v1.06h-3.58c-1.013 0-1.72.18-2.12.54a1.76 1.76 0 0 0-.58 1.34c0 .6.234 1.08.7 1.44.467.36 1.12.54 1.96.54.8 0 1.487-.18 2.06-.54.587-.373 1.014-.907 1.28-1.6l.32.98c-.266.693-.733 1.247-1.4 1.66-.653.413-1.48.62-2.48.62Z"/></svg>